<svg xmlns="http://www.w3.org/2000/svg" version="1.1" xmlns:xlink="http://www.w3.org/1999/xlink" xmlns:svgjs="http://svgjs.dev/svgjs" width="2000" height="2245" viewBox="0 0 2000 2245"><g transform="matrix(1,0,0,1,-1.8423995775001458,0.9105852880350085)"><svg viewBox="0 0 220 247" data-background-color="#ffffff" preserveAspectRatio="xMidYMid meet" height="2245" width="2000" xmlns="http://www.w3.org/2000/svg" xmlns:xlink="http://www.w3.org/1999/xlink"><g id="tight-bounds" transform="matrix(1,0,0,1,0.20266395352501831,-0.09997365579206985)"><svg viewBox="0 0 219.59463699248124 247.2" height="247.2" width="219.59463699248124"><g><svg viewBox="0 0 219.59463699248124 247.2" height="247.2" width="219.59463699248124"><g><svg viewBox="0 0 219.59463699248124 247.2" height="247.2" width="219.59463699248124"><g id="textblocktransform"><svg viewBox="0 0 219.59463699248124 247.2" height="247.2" width="219.59463699248124" id="textblock"><g><svg viewBox="0 0 219.59463699248124 247.2" height="247.2" width="219.59463699248124"><path d="M219.081 53.02C218.048 27.36 215.106 20.227 215.106 20.227 206.073-6.202 194.799-0.506 184.672 3.292 166.791 3.446 148.983 9.091 131.144 12.119 93.7 12.581 55.936 4.986 18.679 23.717 15.179 29.464-3.631 24.846 0.623 56.304 1.737 69.39 5.805 83.913 5.681 95.922 6.239 98.026 7.013 93.202 7.343 96.23 8.499 104.39 10.389 100.541 11.937 105.365 9.78 118.246 11.328 128.971 12.804 140.21 10.203 143.135 6.868 141.749 5.371 151.449 5.217 158.479 4.38 157.145 3.462 156.837 2.79 156.632 1.438 157.402 1.665 159.608 2.439 167.152-0.885 171.514 1.201 178.904-0.234 186.91 2.192 193.838 1.861 202.511 1.82 204.255 2.047 205.744 2.408 206.154 4.009 208.361 1.676 212.672 1.923 217.342 18.338 249.262 36.146 227.195 52.963 241.872 57.33 231.608 54.047 245.516 55.792 243.36 57.155 240.846 58.146 251.263 59.684 245.362 59.921 243.668 59.56 239.665 60.407 240.435 60.85 240.846 61.243 240.743 61.305 238.382 61.398 234.841 60.582 237.048 60.365 235.201 62.709 225.861 62.131 248.081 64.33 247.158 64.226 244.438 63.586 240.538 64.897 241.051 66.198 237.151 66.239 233.918 67.396 242.693 67.437 244.592 67.643 245.926 67.974 246.85 71.587 237.305 75.18 250.237 78.968 245.926 81.291 241.205 83.521 248.492 85.875 246.696 86.701 245.259 87.537 242.693 88.332 247.004 98.067 247.928 108.442 244.079 117.672 247.158 142.335 241.41 168.691 249.518 194.696 241.923 200.828 238.998 207.198 234.841 213.175 231.506 213.175 231.506 218.017 222.371 218.017 181.316S219.05 145.393 219.204 112.703C219.359 80.013 220.082 78.679 219.05 53.02Z" opacity="1" fill="#e321e5" data-fill-palette-color="tertiary"></path><g transform="matrix(1,0,0,1,55.76832000000001,26.230666666666668)"><svg width="108.05799699248122" viewBox="0.2 -38.48 21.619999999999997 38.97" height="194.73866666666666" data-palette-color="#ffffff"><path d="M14.26 0.49L14.26-15.92Q13.53-16.99 12.28-18.55 11.04-20.12 9.62-21.95 8.2-23.78 6.69-25.73 5.18-27.69 3.88-29.52 2.59-31.35 1.61-32.93 0.63-34.52 0.2-35.64L0.2-35.64 1.17-36.52Q2.98-34.57 4.32-32.93 5.66-31.3 6.74-29.86 7.81-28.42 8.69-27.1 9.57-25.78 10.52-24.44 11.47-23.1 12.6-21.7 13.72-20.31 15.23-18.75L15.23-18.75Q15.53-20.12 15.8-21.8 16.06-23.49 16.36-25.29 16.65-27.1 16.99-28.98 17.33-30.86 17.77-32.59 18.21-34.33 18.73-35.84 19.24-37.35 19.92-38.43L19.92-38.43Q19.97-38.48 20.14-38.48 20.31-38.48 20.41-38.48L20.41-38.48Q20.56-38.48 20.83-38.43 21.09-38.38 21.34-38.26 21.58-38.13 21.73-37.94 21.88-37.74 21.78-37.5L21.78-37.5Q21.24-36.38 20.68-34.47 20.12-32.57 19.6-30.2 19.09-27.83 18.65-25.07 18.21-22.31 17.85-19.48 17.48-16.65 17.19-13.84 16.89-11.04 16.75-8.59 16.6-6.15 16.63-4.15 16.65-2.15 16.85-0.93L16.85-0.93Q16.75-0.39 16.67-0.12 16.6 0.15 16.36 0.29 16.11 0.44 15.63 0.46 15.14 0.49 14.26 0.49L14.26 0.49Z" opacity="1" transform="matrix(1,0,0,1,0,0)" fill="#ffffff" class="wordmark-text-0" data-fill-palette-color="quaternary" id="text-0"></path></svg></g></svg></g></svg></g></svg></g><g></g></svg></g><defs></defs></svg><rect width="219.59463699248124" height="247.2" fill="none" stroke="none" visibility="hidden"></rect></g></svg></g></svg>